<svg width="21" height="20" viewBox="0 0 21 20" fill="none" xmlns="http://www.w3.org/2000/svg">
<path d="M9.36803 0.557222C9.73485 -0.186024 10.7947 -0.186026 11.1615 0.55722L13.5588 5.41469C13.7045 5.70983 13.986 5.9144 14.3117 5.96173L19.6723 6.74066C20.4925 6.85985 20.82 7.86782 20.2265 8.44636L16.3476 12.2274C16.1119 12.4571 16.0043 12.7881 16.06 13.1125L16.9757 18.4514C17.1158 19.2683 16.2583 19.8912 15.5247 19.5056L10.7301 16.9849C10.4388 16.8317 10.0908 16.8317 9.79943 16.9849L5.00482 19.5056C4.27119 19.8912 3.41376 19.2683 3.55387 18.4514L4.46956 13.1125C4.5252 12.7881 4.41765 12.4571 4.18196 12.2274L0.303043 8.44636C-0.290474 7.86782 0.0370353 6.85985 0.857256 6.74066L6.21779 5.96173C6.5435 5.9144 6.82507 5.70983 6.97073 5.41469L9.36803 0.557222Z" fill="url(#paint0_linear_2043_848)"/>
<defs>
<linearGradient id="paint0_linear_2043_848" x1="7.76477" y1="6.24023" x2="14.7648" y2="18.7402" gradientUnits="userSpaceOnUse">
<stop stop-color="#FFA600"/>
<stop offset="1" stop-color="#FF6C10"/>
</linearGradient>
</defs>
</svg>
