<svg width="40" height="40" viewBox="0 0 40 40" fill="none" xmlns="http://www.w3.org/2000/svg">
<path d="M0 10C0 4.47715 4.47715 0 10 0H30C35.5228 0 40 4.47715 40 10V30C40 35.5228 35.5228 40 30 40H10C4.47715 40 0 35.5228 0 30V10Z" fill="#F68787"/>
<path d="M9.66663 32.0001V14.6667C9.66663 12.4576 11.4015 10.6667 13.5416 10.6667H26.4583C28.5984 10.6667 30.3333 12.4576 30.3333 14.6667V22.6667C30.3333 24.8759 28.5984 26.6667 26.4583 26.6667H14.8333L9.66663 32.0001" stroke="#050111" stroke-width="1.5" stroke-linecap="round" stroke-linejoin="round"/>
<path d="M17.4166 22.6667V17.3334C17.4166 15.8607 18.5732 14.6667 20 14.6667C21.4267 14.6667 22.5833 15.8607 22.5833 17.3334V22.6667" stroke="#050111" stroke-width="1.5" stroke-linecap="round" stroke-linejoin="round"/>
<path d="M22.5833 19.9999H17.4166" stroke="#050111" stroke-width="1.5" stroke-linecap="round" stroke-linejoin="round"/>
</svg>
