<svg width="40" height="40" viewBox="0 0 40 40" fill="none" xmlns="http://www.w3.org/2000/svg">
<path d="M0 10C0 4.47715 4.47715 0 10 0H30C35.5228 0 40 4.47715 40 10V30C40 35.5228 35.5228 40 30 40H10C4.47715 40 0 35.5228 0 30V10Z" fill="#FBFF8D"/>
<path d="M9.66669 32.0001V14.6667C9.66669 12.4576 11.4016 10.6667 13.5417 10.6667H26.4584C28.5985 10.6667 30.3334 12.4576 30.3334 14.6667V22.6667C30.3334 24.8759 28.5985 26.6667 26.4584 26.6667H14.8334L9.66669 32.0001" stroke="#050111" stroke-width="1.5" stroke-linecap="round" stroke-linejoin="round"/>
<path d="M17.4167 22.6667V17.3334C17.4167 15.8607 18.5733 14.6667 20 14.6667C21.4268 14.6667 22.5834 15.8607 22.5834 17.3334V22.6667" stroke="#050111" stroke-width="1.5" stroke-linecap="round" stroke-linejoin="round"/>
<path d="M22.5834 19.9999H17.4167" stroke="#050111" stroke-width="1.5" stroke-linecap="round" stroke-linejoin="round"/>
</svg>
