<svg width="64" height="64" viewBox="0 0 64 64" fill="none" xmlns="http://www.w3.org/2000/svg">
<path fill-rule="evenodd" clip-rule="evenodd" d="M12.808 0.125388C12.0667 0.338721 11.5493 0.808055 11.1573 1.62939C10.728 2.53339 10.3253 3.83205 10.0613 5.17339C9.77865 6.60272 9.80265 9.61072 10.1067 11.0161L10.3307 12.0587L9.63465 13.0961C8.27619 15.1261 7.35448 17.4163 6.92798 19.8214C6.77065 20.7441 6.71998 21.5414 6.71998 23.1521C6.71998 29.7121 8.46932 34.6187 12.0987 38.2481C14.408 40.5547 17.08 42.0294 20.8986 43.1014C21.5093 43.2721 22.0293 43.4347 22.056 43.4587C22.08 43.4854 21.9973 43.8214 21.8693 44.208C21.5173 45.3007 21.3374 46.4414 21.336 47.5894L21.3333 48.6187L20.416 48.7494C19.136 48.9307 17.2053 48.8347 16.312 48.5494C15.4987 48.2854 14.504 47.6721 13.744 46.9627C13.4507 46.6854 12.5387 45.6321 11.7173 44.6214C10.0507 42.5627 9.04532 41.5734 7.98398 40.9441C7.13865 40.4401 5.90398 40.0001 5.34132 40.0001C4.27732 40.0001 3.17865 40.7734 2.84265 41.7601C2.33865 43.2401 3.05065 44.6587 4.58132 45.2161C5.43198 45.5281 6.03198 46.0774 7.49598 47.8907C10.0693 51.0801 11.4907 52.3067 13.7013 53.2534C15.1173 53.8587 16.3093 54.0987 18.1867 54.1547C19.1253 54.1841 20.2187 54.1627 20.6133 54.1094L21.3333 54.0107V56.5334C21.3333 59.4534 21.4053 59.8107 22.1306 60.5361C22.3748 60.7839 22.6658 60.9807 22.9867 61.1151C23.3076 61.2494 23.6521 61.3186 24 61.3186C24.3479 61.3186 24.6923 61.2494 25.0132 61.1151C25.3342 60.9807 25.6252 60.7839 25.8693 60.5361C26.68 59.7254 26.6667 59.8507 26.6667 52.9627C26.6667 46.2241 26.664 46.2614 27.3573 44.8534C27.56 44.4427 27.9707 43.8241 28.2667 43.4801C28.9467 42.6934 29.12 42.2774 29.1173 41.4534C29.13 41.1093 29.0708 40.7663 28.9437 40.4463C28.8165 40.1263 28.6241 39.8363 28.3787 39.5947C27.8373 39.0534 27.5093 38.9361 25.776 38.6641C21.4693 37.9894 18.9706 37.0427 16.6293 35.2001C14.4373 33.4721 13.0373 30.8667 12.352 27.2294C12.1493 26.1521 12.1147 25.6001 12.112 23.3601C12.1067 20.9521 12.1253 20.6747 12.3547 19.8427C12.8068 18.0949 13.6472 16.4715 14.8133 15.0934C16.0373 13.6827 16.2133 13.0161 15.744 11.5361C15.3828 10.4052 15.1817 9.22934 15.1467 8.04272C15.1467 7.18672 15.3307 5.76805 15.4693 5.54139C15.6933 5.17872 18.936 6.60005 21.52 8.19472C23.536 9.44005 23.5813 9.44805 25.616 8.96805C30.816 7.74139 35.9093 7.73605 41.0133 8.95472C41.76 9.13339 42.5253 9.28005 42.7173 9.28005C43.2746 9.28005 43.8213 9.03739 45.1893 8.17872C47.16 6.94405 49.6933 5.74139 50.8453 5.49872C51.232 5.41605 51.2373 5.42672 51.408 6.50672C51.648 8.02139 51.48 9.77339 50.9226 11.5361C50.7093 12.2054 50.656 12.5574 50.6986 12.9707C50.7626 13.5814 51.056 14.2374 51.4106 14.5574C51.8453 14.9494 52.8106 16.3174 53.28 17.2027C54.272 19.0747 54.6133 20.5867 54.6133 23.1334C54.6133 29.1601 52.7866 33.4427 49.184 35.8534C47.1813 37.1947 44.6987 38.0294 41.112 38.5654C39.2213 38.8481 38.7786 39.0054 38.2186 39.5894C37.7493 40.0801 37.5466 40.6241 37.5466 41.3867C37.5466 42.2107 37.7093 42.5867 38.4506 43.4854C38.7813 43.8854 39.192 44.5014 39.3626 44.8534C39.9973 46.1547 40 46.1894 40 52.9094C40 59.8561 39.9866 59.7254 40.7973 60.5361C41.0415 60.7839 41.3325 60.9807 41.6534 61.1151C41.9743 61.2494 42.3187 61.3186 42.6666 61.3186C43.0146 61.3186 43.359 61.2494 43.6799 61.1151C44.0008 60.9807 44.2918 60.7839 44.536 60.5361C45.3493 59.7227 45.3333 59.8747 45.3307 52.7547C45.3253 46.0667 45.296 45.6001 44.7973 44.1014C44.6693 43.7147 44.5813 43.3894 44.6026 43.3761C44.624 43.3627 45 43.2641 45.44 43.1574C47.7787 42.5841 50.328 41.4881 52.2133 40.2401C53.656 39.2881 55.608 37.3307 56.5653 35.8854C57.9415 33.7586 58.9033 31.3908 59.4 28.9067C59.8373 26.6614 59.8933 26.0187 59.8906 23.1467C59.8906 20.6214 59.864 20.2081 59.656 19.2801C59.176 17.0727 58.2859 14.975 57.032 13.0961L56.336 12.0587L56.56 11.0161C56.864 9.61072 56.888 6.60272 56.6053 5.17339C56.3413 3.83205 55.9386 2.53339 55.5093 1.62939C55.1066 0.786721 54.6026 0.338721 53.8106 0.120055C53.192 -0.0532785 51.2133 -0.0266119 50.2613 0.168055C48.3386 0.560055 45.4746 1.76005 43.2133 3.12539L42.2133 3.73072L40.92 3.46939C35.9214 2.4707 30.7746 2.4707 25.776 3.46939L24.4613 3.73605L23.4587 3.12805C21.224 1.78139 18.296 0.549388 16.4053 0.165388C15.4907 -0.0186119 13.392 -0.0426119 12.808 0.125388Z" fill="#7DD8FF"/>
</svg>
