<svg width="64" height="60" viewBox="0 0 64 60" fill="none" xmlns="http://www.w3.org/2000/svg">
<g clip-path="url(#clip0_2043_480)">
<path d="M12.9212 0.413636C11.7612 0.413636 10.7345 1.1603 10.3745 2.25897C7.0385 12.5336 3.32383 23.9443 0.187832 33.563C-0.0624815 34.3327 -0.0626138 35.162 0.187454 35.9318C0.437522 36.7017 0.924945 37.3726 1.57983 37.8483L31.1025 59.3016C31.6358 59.6883 32.3612 59.6856 32.8892 59.291L62.4172 37.851C63.074 37.375 63.5627 36.7028 63.8129 35.9312C64.0631 35.1596 64.0618 34.3285 63.8092 33.5576C60.3825 23.0456 56.6545 11.5416 53.6305 2.23497C53.451 1.70117 53.1078 1.23756 52.6496 0.910091C52.1914 0.58262 51.6417 0.407965 51.0785 0.41097C50.5153 0.406555 49.9656 0.582905 49.5101 0.914101C49.0545 1.2453 48.7173 1.71388 48.5478 2.25097L42.1345 22.0056H21.8758L15.4492 2.25097C15.2807 1.71693 14.9462 1.25056 14.4944 0.919651C14.0427 0.588742 13.4972 0.410547 12.9372 0.41097L12.9212 0.413636ZM12.9052 4.2003L18.6998 22.0083H7.1345L12.9052 4.2003ZM51.1078 4.2003L56.8892 22.0083H45.3132L51.1078 4.2003ZM22.8598 25.027H41.1585C38.1132 34.4136 35.0572 43.8003 32.0012 53.1843L22.8598 25.0296V25.027ZM8.15583 25.0403H19.6785L27.9078 50.3736L8.15583 25.0403ZM44.3345 25.0403H55.8678C49.2892 33.4936 42.6678 41.915 36.1052 50.379C38.8465 41.9336 41.5958 33.4883 44.3345 25.0403ZM5.60116 26.7016L24.2065 50.5603L3.36117 35.4083C3.22164 35.3078 3.11757 35.1656 3.06391 35.0022C3.01025 34.8388 3.00975 34.6627 3.0625 34.499L5.60116 26.7016ZM58.3958 26.7016L60.9345 34.4936C60.9878 34.6568 60.9881 34.8326 60.9354 34.9959C60.8827 35.1593 60.7797 35.3017 60.6412 35.403V35.4083L39.7878 50.555L39.8572 50.4616L58.3958 26.7016Z" fill="#FBFF8D"/>
</g>
<defs>
<clipPath id="clip0_2043_480">
<rect width="64" height="60" fill="white"/>
</clipPath>
</defs>
</svg>
