<svg width="64" height="64" viewBox="0 0 64 64" fill="none" xmlns="http://www.w3.org/2000/svg">
<g clip-path="url(#clip0_2043_501)">
<path d="M51.6 26.7734C49.7867 17.5734 41.7067 10.6667 32 10.6667C24.2933 10.6667 17.6 15.0401 14.2667 21.4401C6.24 22.2934 0 29.0934 0 37.3334C0 46.1601 7.17333 53.3334 16 53.3334H50.6667C58.0267 53.3334 64 47.3601 64 40.0001C64 32.9601 58.5333 27.2534 51.6 26.7734ZM50.6667 48.0001H16C10.1067 48.0001 5.33333 43.2267 5.33333 37.3334C5.33333 31.8667 9.41333 27.3067 14.8267 26.7467L17.68 26.4534L19.0133 23.9201C21.5467 19.0401 26.5067 16.0001 32 16.0001C38.9867 16.0001 45.0133 20.9601 46.3733 27.8134L47.1733 31.8134L51.2533 32.1067C55.4133 32.3734 58.6667 35.8667 58.6667 40.0001C58.6667 44.4001 55.0667 48.0001 50.6667 48.0001ZM26.6667 37.8134L21.0933 32.2401L17.3333 36.0001L26.6667 45.3334L42.6933 29.3067L38.9333 25.5467L26.6667 37.8134Z" fill="#EDB5FF"/>
</g>
<defs>
<clipPath id="clip0_2043_501">
<rect width="64" height="64" fill="white"/>
</clipPath>
</defs>
</svg>
