<svg width="24" height="24" viewBox="0 0 24 24" fill="none" xmlns="http://www.w3.org/2000/svg">
<g clip-path="url(#clip0_2043_892)">
<path d="M19.3216 19.1188H4.67755L5.85477 3.81455C5.87919 3.49847 6.14277 3.25439 6.45965 3.25439H17.5395C17.8564 3.25439 18.1199 3.49847 18.1444 3.81455L19.3216 19.1188Z" fill="#E64C3C"/>
<path d="M20.3559 24H3.6442C3.31636 24 3.05072 23.7343 3.05072 23.4069V19.7117C3.05072 19.3842 3.31636 19.1187 3.6442 19.1187H20.3559C20.6834 19.1187 20.949 19.3843 20.949 19.7117V23.4069C20.949 23.7343 20.6834 24 20.3559 24Z" fill="#556080"/>
<path d="M19.3217 2.84751C19.2176 2.84751 19.1135 2.80767 19.0341 2.72831C18.8751 2.56926 18.8751 2.31215 19.0341 2.15311L20.2545 0.932762C20.4135 0.773715 20.6706 0.773715 20.8297 0.932762C20.9887 1.09181 20.9887 1.34892 20.8297 1.50796L19.6093 2.72831C19.53 2.80762 19.4259 2.84751 19.3217 2.84751Z" fill="#BF372C"/>
<path d="M11.5932 2.03391C11.3683 2.03391 11.1865 1.85166 11.1865 1.62713V0.406781C11.1865 0.18225 11.3683 0 11.5932 0C11.8182 0 12 0.18225 12 0.406781V1.62713C12 1.85166 11.8182 2.03391 11.5932 2.03391Z" fill="#BF372C"/>
<path d="M22.1699 9.76278H20.9496C20.7246 9.76278 20.5428 9.58053 20.5428 9.356C20.5428 9.13147 20.7246 8.94922 20.9496 8.94922H22.1699C22.3949 8.94922 22.5767 9.13147 22.5767 9.356C22.5767 9.58053 22.3949 9.76278 22.1699 9.76278Z" fill="#BF372C"/>
<path d="M22.9834 16.2711H21.763C21.5381 16.2711 21.3563 16.0888 21.3563 15.8643C21.3563 15.6398 21.5381 15.4575 21.763 15.4575H22.9834C23.2083 15.4575 23.3902 15.6398 23.3902 15.8643C23.3902 16.0888 23.2083 16.2711 22.9834 16.2711Z" fill="#BF372C"/>
<path d="M4.2716 3.25425C4.16745 3.25425 4.06334 3.21441 3.98402 3.13505L2.76363 1.9147C2.60459 1.75566 2.60459 1.49855 2.76363 1.3395C2.92268 1.18045 3.17979 1.18045 3.33884 1.3395L4.55918 2.55984C4.71823 2.71889 4.71823 2.976 4.55918 3.13505C4.47987 3.21436 4.37571 3.25425 4.2716 3.25425Z" fill="#BF372C"/>
<path d="M3.05083 9.76278H1.83049C1.60553 9.76278 1.42371 9.58053 1.42371 9.356C1.42371 9.13147 1.60553 8.94922 1.83049 8.94922H3.05083C3.27578 8.94922 3.45761 9.13147 3.45761 9.356C3.45761 9.58053 3.27578 9.76278 3.05083 9.76278Z" fill="#BF372C"/>
<path d="M2.23729 16.2711H1.01695C0.791997 16.2711 0.610168 16.0888 0.610168 15.8643C0.610168 15.6398 0.791997 15.4575 1.01695 15.4575H2.23729C2.46225 15.4575 2.64407 15.6398 2.64407 15.8643C2.64407 16.0888 2.46225 16.2711 2.23729 16.2711Z" fill="#BF372C"/>
<path d="M5.492 24.0002H6.30552V22.373H5.492V24.0002Z" fill="#3D4763"/>
<path d="M7.52618 24.0002H8.33975V22.373H7.52618V24.0002Z" fill="#3D4763"/>
<path d="M9.55939 24.0002H10.3729V22.373H9.55939V24.0002Z" fill="#3D4763"/>
<path d="M11.5937 24.0002H12.4073V22.373H11.5937V24.0002Z" fill="#3D4763"/>
<path d="M13.6276 24.0002H14.4411V22.373H13.6276V24.0002Z" fill="#3D4763"/>
<path d="M15.6619 24.0002H16.4755V22.373H15.6619V24.0002Z" fill="#3D4763"/>
<path d="M17.6951 24.0002H18.5086V22.373H17.6951V24.0002Z" fill="#3D4763"/>
<path d="M13.2203 14.6441H10.7796C10.5547 14.6441 10.3729 14.4619 10.3729 14.2373C10.3729 14.0128 10.5547 13.8306 10.7796 13.8306H13.2203C13.4453 13.8306 13.6271 14.0128 13.6271 14.2373C13.6271 14.4619 13.4453 14.6441 13.2203 14.6441Z" fill="#BF372C"/>
<path d="M15.2539 6.76191V12.7635C15.2539 12.9015 15.138 13.0178 15.0001 13.0072C13.3216 12.8778 11.9996 11.4744 11.9996 9.7627C11.9996 8.05055 13.3216 6.64758 15.0001 6.51825C15.138 6.50766 15.2539 6.62358 15.2539 6.76191Z" fill="#BF372C"/>
<path d="M8.74573 6.76187V12.7635C8.74573 12.9014 8.86165 13.0178 8.99956 13.0072C10.6779 12.8778 12 11.4744 12 9.76271C12 8.05055 10.678 6.64759 8.99956 6.51826C8.86165 6.50762 8.74573 6.62354 8.74573 6.76187Z" fill="#BF372C"/>
<path d="M12 16.2712C11.775 16.2712 11.5932 16.089 11.5932 15.8645V9.76274C11.5932 9.53821 11.775 9.35596 12 9.35596C12.2249 9.35596 12.4068 9.53821 12.4068 9.76274V15.8644C12.4068 16.089 12.2249 16.2712 12 16.2712Z" fill="#BF372C"/>
<path d="M10.7801 19.1185H13.2208V15.8643H10.7801V19.1185Z" fill="#ECF0F1"/>
<path d="M14.0339 17.8985H9.96611C9.74115 17.8985 9.55933 17.7163 9.55933 17.4917C9.55933 17.2672 9.74115 17.085 9.96611 17.085H14.0339C14.2589 17.085 14.4407 17.2672 14.4407 17.4917C14.4407 17.7163 14.2589 17.8985 14.0339 17.8985Z" fill="#556080"/>
</g>
<defs>
<clipPath id="clip0_2043_892">
<rect width="24" height="24" fill="white"/>
</clipPath>
</defs>
</svg>
